<?xml version="1.0" encoding="UTF-8"?><svg id="Layer_2" xmlns="http://www.w3.org/2000/svg" viewBox="0 0 40.71 36.65"><defs><style>.cls-1{fill:#1d1d1b;}</style></defs><g id="Layer_1-2"><path class="cls-1" d="M20.35,0C9.13,0,0,9.13,0,20.35c0,6.32,2.88,12.19,7.91,16.08l.27,.21h24.36l.27-.21c5.02-3.9,7.91-9.76,7.91-16.08C40.71,9.13,31.58,0,20.35,0Zm0,2c9.94,0,18.03,7.94,18.33,17.81h-13c-.28-2.71-2.55-4.84-5.33-4.84s-5.05,2.13-5.33,4.84H2.03C2.32,9.94,10.42,2,20.35,2Zm0,21.74c-1.87,0-3.39-1.52-3.39-3.39s1.52-3.39,3.39-3.39,3.39,1.52,3.39,3.39-1.52,3.39-3.39,3.39Zm-18.29-1.94H15.19c.55,1.95,2.15,3.45,4.16,3.83v9H8.87c-3.99-3.21-6.41-7.81-6.8-12.84Zm29.78,12.84h-10.49v-9c2.01-.38,3.61-1.89,4.16-3.83h13.13c-.39,5.03-2.82,9.63-6.8,12.84Z"/></g></svg>