<?xml version="1.0" encoding="utf-8"?>
<!-- Generator: Adobe Illustrator 26.3.1, SVG Export Plug-In . SVG Version: 6.00 Build 0)  -->
<svg version="1.1" id="Layer_1" xmlns="http://www.w3.org/2000/svg" xmlns:xlink="http://www.w3.org/1999/xlink" x="0px" y="0px"
	 viewBox="0 0 512 512" style="enable-background:new 0 0 512 512;" xml:space="preserve">
<style type="text/css">
	.st0{fill:#FFFFFF;}
</style>
<g transform="translate(0.000000,512.000000) scale(0.100000,-0.100000)">
	<path class="st0" d="M2375,5054c-16-2-73-9-125-15c-435-49-869-231-1240-518c-110-85-327-302-412-412c-277-358-445-751-515-1206
		c-23-150-23-536,0-686C195,1490,576,883,1170,485c330-221,669-348,1085-407c135-19,503-16,650,5c373,55,731,192,1035,395
		c617,413,996,1025,1102,1777c17,119,16,493-1,615c-88,635-394,1199-866,1597c-357,302-802,502-1265,568
		C2802,5051,2443,5064,2375,5054z M3210,4250c102-6,195-12,208-15l22-5v-270v-270h-203c-279,0-334-19-386-129c-25-55-26-58-26-301
		v-245l299-3l299-2l-5-33c-3-17-21-152-39-299l-34-268h-262h-263v-775V860h-310h-310v775v775h-260h-260v300v300h259h259l4,313
		c5,355,12,400,90,557c81,165,251,299,437,346C2863,4259,2952,4264,3210,4250z"/>
</g>
</svg>
