<?xml version="1.0" encoding="utf-8"?>
<!-- Generator: Adobe Illustrator 26.3.1, SVG Export Plug-In . SVG Version: 6.00 Build 0)  -->
<svg version="1.1" id="Layer_1" xmlns="http://www.w3.org/2000/svg" xmlns:xlink="http://www.w3.org/1999/xlink" x="0px" y="0px"
	 viewBox="0 0 512 512" style="enable-background:new 0 0 512 512;" xml:space="preserve">
<style type="text/css">
	.st0{fill:#FFFFFF;}
</style>
<path class="st0" d="M148,363.9c7.5,7.6,14.8,12.2,25.2,15.8c14.2,5,19.1,5.4,69.3,6c68.9,0.8,86.5-0.8,104-9.2
	c19.6-9.5,31.2-25.4,36.7-50.5c2.2-10.3,2.2-11.8,2.2-70s0-59.7-2.2-70c-5.5-25.1-17.1-41-36.7-50.5c-10.4-5-21-7.4-37.5-8.5
	c-16.7-1.1-90.9-1.1-108,0c-18.5,1.3-31.3,5.1-43.4,13c-15.4,10-25.2,26.1-29.3,48.2c-1.5,8.1-1.8,16.5-1.8,66.3
	c0,62.1,0.4,68.6,5.4,83.3C135.7,348.8,140.2,356,148,363.9z M152.5,187.2c4.5-18.8,16.2-30.3,35.2-34.8c3.7-0.9,13.8-2,22.3-2.4
	c40.4-1.8,102.3-0.5,114.8,2.5c18.4,4.4,30.3,16.3,34.7,34.7c4.5,18.5,4.5,119.1,0,137.6c-4.4,18.4-16.3,30.3-34.7,34.7
	c-18.5,4.5-119.1,4.5-137.6,0c-18.5-4.4-30.2-16.2-34.7-34.7S148,205.7,152.5,187.2z"/>
<path class="st0" d="M318.4,200.4c10.5,5,22.1-2.3,22.1-13.9c0-5.7-1.8-9.1-6.7-12.8c-3.3-2.5-10.4-3.1-14.3-1.3
	c-3.7,1.6-8.3,6.8-9.1,10.2C308.7,189.5,312.3,197.5,318.4,200.4z"/>
<path class="st0" d="M222.1,313.3c11,6.4,20.5,9,33.9,9c9.7,0,12.8-0.4,19.5-2.6c21.5-7.1,37.1-22.7,44.2-44.2
	c2.2-6.7,2.6-9.8,2.6-19.5s-0.4-12.8-2.6-19.5c-7-21.4-22.9-37.3-43.8-44c-13.8-4.3-28.8-4.1-42.2,0.8
	c-19.8,7.2-34.7,22.7-41.4,43.2c-2.2,6.7-2.6,9.8-2.6,19.5c0,13.4,2.5,22.8,9,34C203.5,298.1,213.7,308.4,222.1,313.3z M242.6,215
	c12.7-4.1,27.9-1.7,38.7,6c19,13.6,23.4,41.1,9.7,60.3c-16.9,23.5-53.1,23.5-70,0C204.1,257.7,215.2,223.7,242.6,215z"/>
</svg>
