<?xml version="1.0" encoding="UTF-8"?><svg id="Layer_2" xmlns="http://www.w3.org/2000/svg" viewBox="0 0 40.41 30.35"><defs><style>.cls-1{fill:#1d1d1b;}</style></defs><g id="Layer_1-2"><g><path class="cls-1" d="M38.73,10.41c.56-.19,1.12-.37,1.68-.57l-.69-1.88c-.51,.19-1.02,.36-1.54,.54l-1.82-6.35h0c-.36-1.26-1.54-2.15-2.85-2.15H7.34c-1.32,0-2.49,.88-2.85,2.15l-1.86,6.48c-1.17-.37-1.82-.64-1.86-.65l-.76,1.85c.14,.06,.87,.35,2.06,.74L.83,14.85c-.08,.27-.12,.54-.12,.82v11.71c0,1.64,1.33,2.97,2.97,2.97h3.15c1.64,0,2.97-1.33,2.97-2.97,0-.53,.43-.97,.97-.97H30.07c.53,0,.97,.43,.97,.97,0,1.64,1.33,2.97,2.97,2.97h3.15c1.64,0,2.97-1.33,2.97-2.97V15.67c0-.28-.04-.55-.12-.82l-1.27-4.44ZM6.4,2.7c.12-.41,.5-.7,.93-.7h26.17c.43,0,.81,.29,.93,.7l1.84,6.4c-13.53,3.97-25.79,1.72-31.74,.09l1.86-6.49Zm31.72,24.68c0,.53-.43,.97-.97,.97h-3.15c-.53,0-.97-.43-.97-.97,0-1.64-1.33-2.97-2.97-2.97H10.77c-1.64,0-2.97,1.33-2.97,2.97,0,.53-.43,.97-.97,.97H3.69c-.53,0-.97-.43-.97-.97V15.67c0-.09,.01-.18,.04-.27l1.22-4.26c3.6,1.01,9.39,2.23,16.43,2.23,4.97,0,10.57-.63,16.42-2.35l1.26,4.39c.02,.09,.04,.18,.04,.27v11.71Z"/><rect class="cls-1" x="5.69" y="18.06" width="4.22" height="2"/><rect class="cls-1" x="30.93" y="18.06" width="4.22" height="2"/><rect class="cls-1" x="13.4" y="18.06" width="14.05" height="2"/></g></g></svg>