<?xml version="1.0" encoding="utf-8"?>
<!-- Generator: Adobe Illustrator 26.3.1, SVG Export Plug-In . SVG Version: 6.00 Build 0)  -->
<svg version="1.1" id="Layer_1" xmlns="http://www.w3.org/2000/svg" xmlns:xlink="http://www.w3.org/1999/xlink" x="0px" y="0px"
	 viewBox="0 0 512 512" style="enable-background:new 0 0 512 512;" xml:space="preserve">
<style type="text/css">
	.st0{fill:#FFFFFF;}
</style>
<g transform="translate(0.000000,512.000000) scale(0.100000,-0.100000)">
	<path class="st0" d="M2330,5110c-199-18-464-78-649-146c-237-88-529-254-727-414c-101-82-302-283-384-384c-160-198-326-490-414-727
		C32,3103-22,2697,10,2342c19-216,76-470,146-661c88-237,254-529,414-727c82-101,283-302,384-384c198-160,490-326,727-414
		C2017,32,2423-22,2778,10c216,19,470,76,661,146c237,88,529,254,727,414c101,82,302,283,384,384c160,198,326,490,414,727
		c70,191,127,445,146,661c32,355-22,761-146,1097c-88,237-254,529-414,727c-82,101-283,302-384,384c-198,160-490,326-727,414
		C3102,5088,2692,5142,2330,5110z M2641,4477c136-216,209-356,293-561c38-92,106-298,106-321c0-13-57-15-480-15c-383,0-480,3-480,13
		c0,53,131,386,228,579c71,141,240,428,252,428C2563,4600,2599,4545,2641,4477z M1853,4423c-164-354-221-498-282-708l-37-130l-368-3
		c-325-2-368,0-362,13c3,8,29,50,57,92c227,337,551,607,929,774c47,21,88,38,92,38C1886,4500,1873,4465,1853,4423z M3317,4466
		c344-147,663-389,863-655c60-80,140-207,140-223c0-5-165-7-367-6l-367,3l-37,130c-61,210-118,354-282,708c-20,42-35,77-33,77
		S3274,4485,3317,4466z M1456,3048c-4-13-11-124-16-247c-8-209-6-309,16-644l7-107l-439,2l-438,3l-23,87c-12,48-27,124-34,170
		c-15,106-16,389,0,493c11,75,48,241,58,258c2,4,200,7,440,7h435L1456,3048z M3194,2928c39-290,37-448-8-679c-13-68-27-141-30-161
		l-7-38h-589c-325,0-590,2-590,5s-10,71-22,153c-17,114-22,192-22,352s5,238,22,352c12,82,22,150,22,153s271,5,603,5h603L3194,2928z
		 M4578,2993c40-150,47-213,47-433s-7-283-47-432l-20-78h-434h-435l8,93c11,124,10,553-1,760l-9,167h435h436L4578,2993z M1571,1405
		c61-210,118-354,282-707c20-43,35-78,33-78c-9,0-165,69-226,100c-337,170-658,458-821,738c-22,37-39,70-39,74c0,5,165,7,367,6
		l367-3L1571,1405z M3040,1527c0-53-131-386-228-579c-71-141-240-428-252-428c-17,0-231,367-297,509c-84,181-183,449-183,496
		c0,13,57,15,480,15C2943,1540,3040,1537,3040,1527z M4320,1532c0-4-17-37-39-74c-163-280-484-568-821-738c-62-31-217-100-226-100
		c-2,0,23,53,55,119c109,217,209,474,267,689c14,54,28,100,31,105C3593,1542,4320,1542,4320,1532z"/>
</g>
</svg>
