<?xml version="1.0" encoding="UTF-8"?><svg id="Layer_2" xmlns="http://www.w3.org/2000/svg" viewBox="0 0 578.98 136.15"><defs><style>.cls-1{fill:#05141f;}</style></defs><g id="Layer_1-2"><path class="cls-1" d="M335.93,120.62c0,1.07,.33,1.68,.96,1.68,.45,0,.88-.2,1.4-.54L518.75,4.59c3.17-2.07,6.07-3.16,10.4-3.16h39.66c6.1,0,10.17,4.07,10.17,10.17V87.32c0,9.15-2.03,14.43-10.16,19.32l-48.11,28.9c-.64,.4-1.16,.6-1.61,.6-.58,0-1.12-.45-1.12-2.1V45.66c0-.96-.32-1.7-.97-1.7-.45,0-.87,.2-1.39,.52l-131.93,85.69c-3.7,2.4-6.74,3.12-10.12,3.12h-87.46c-6.1,0-10.17-4.07-10.17-10.17V14c0-.8-.36-1.53-.97-1.53-.45,0-.87,.19-1.42,.53l-87.01,52.26c-.87,.52-1.11,.96-1.11,1.37,0,.38,.15,.72,.77,1.34l62.14,62.14c.83,.83,1.4,1.46,1.4,2.11,0,.74-.91,1.07-1.97,1.07h-56.24c-4.41,0-7.8-.67-10.18-3.05l-37.68-37.68c-.37-.37-.69-.6-1.09-.6-.33,0-.77,.16-1.16,.41l-63.04,37.88c-3.81,2.29-6.45,3.04-10.18,3.04H10.17c-6.1,0-10.17-4.07-10.17-10.17V48.79c0-9.15,2.05-14.41,10.17-19.29L58.57,.42c.48-.3,.91-.42,1.31-.42,.73,0,1.13,.77,1.13,2.44V101.82c0,1.04,.29,1.53,.97,1.53,.45,0,.89-.27,1.44-.6L226.96,4.48c3.9-2.35,6.3-3.05,10.79-3.05h88c6.1,0,10.17,4.07,10.17,10.17V120.62Z"/></g></svg>