<?xml version="1.0" encoding="UTF-8"?><svg id="Layer_2" xmlns="http://www.w3.org/2000/svg" viewBox="0 0 30.35 39.49"><defs><style>.cls-1{fill:#1d1d1b;}</style></defs><g id="Layer_1-2"><path class="cls-1" d="M15.17,39.49l-.73-.77c-.59-.63-14.45-15.41-14.45-23.54S6.81,0,15.17,0s15.17,6.81,15.17,15.17-13.86,22.92-14.45,23.54l-.73,.77ZM15.17,2C7.91,2,2,7.91,2,15.17c0,6.36,10.31,18.21,13.17,21.38,2.86-3.17,13.17-15.02,13.17-21.38,0-7.26-5.91-13.17-13.17-13.17Z"/><path class="cls-1" d="M15.17,22.52c-3.4,0-6.16-2.76-6.16-6.16s2.76-6.16,6.16-6.16,6.16,2.76,6.16,6.16-2.76,6.16-6.16,6.16Zm0-10.32c-2.29,0-4.16,1.87-4.16,4.16s1.87,4.16,4.16,4.16,4.16-1.87,4.16-4.16-1.87-4.16-4.16-4.16Z"/></g></svg>