<?xml version="1.0" standalone="no"?>
<!DOCTYPE svg PUBLIC "-//W3C//DTD SVG 20010904//EN"
 "http://www.w3.org/TR/2001/REC-SVG-20010904/DTD/svg10.dtd">
<svg version="1.0" xmlns="http://www.w3.org/2000/svg"
 width="512.000000pt" height="512.000000pt" viewBox="0 0 512.000000 512.000000"
 preserveAspectRatio="xMidYMid meet">

<g transform="translate(0.000000,512.000000) scale(0.100000,-0.100000)"
fill="#000000" stroke="none">
<path d="M2404 4260 c-751 -72 -1352 -613 -1516 -1363 -20 -89 -22 -131 -22
-337 0 -259 10 -335 74 -532 269 -823 1120 -1314 1972 -1137 603 125 1106 591
1281 1187 l16 52 -223 0 -224 0 -22 -60 c-95 -254 -341 -520 -605 -652 -92
-47 -219 -91 -325 -114 -119 -26 -381 -26 -500 0 -259 56 -463 167 -651 355
-188 188 -299 392 -355 651 -26 119 -26 381 0 500 56 259 167 462 355 651 231
232 512 359 836 376 329 18 664 -103 913 -328 l50 -46 -339 -339 c-186 -186
-339 -342 -339 -347 0 -4 334 -6 743 -5 l742 3 3 743 c1 408 -1 742 -5 742 -4
0 -119 -111 -254 -246 l-247 -247 -54 50 c-219 207 -551 372 -852 423 -136 23
-331 31 -452 20z"/>
</g>
</svg>
