<?xml version="1.0" encoding="utf-8"?>
<!-- Generator: Adobe Illustrator 26.3.1, SVG Export Plug-In . SVG Version: 6.00 Build 0)  -->
<svg version="1.1" id="Layer_1" xmlns="http://www.w3.org/2000/svg" xmlns:xlink="http://www.w3.org/1999/xlink" x="0px" y="0px"
	 viewBox="0 0 512 512" style="enable-background:new 0 0 512 512;" xml:space="preserve">
<style type="text/css">
	.st0{fill:#FFFFFF;}
</style>
<path class="st0" d="M158.9,350.4c4.8,1.4,16.1,1.6,97.1,1.6s92.3-0.2,97.1-1.6c18.6-5.5,32.5-20.2,36.4-38.9
	c2.1-10.2,2.1-100.8,0-111c-3.9-18.7-17.7-33.4-36.4-38.9c-4.8-1.4-16.1-1.6-97.5-1.6l-92.1,0.1l-6.5,2.2
	c-18.3,6.2-30.6,19.9-34.5,38.2c-2.1,10.2-2.1,100.8,0,111C126.4,330.2,140.2,344.9,158.9,350.4z M221,215.2
	c1.9,0.6,69.9,40.3,70,40.8c0,0.5-69.5,41-70.5,41c-0.3,0-0.5-18.5-0.5-41.1C220,229.4,220.3,215,221,215.2z"/>
</svg>
